<svg width="57" height="59" viewBox="0 0 57 59" fill="none" xmlns="http://www.w3.org/2000/svg">
<circle cx="28.5" cy="28.5" r="28.5" fill="#0F1C13"/>
<path d="M23.5 11.4C27.3667 11.1333 30.7833 11 33.75 11C41.9833 11 46.1 13.75 46.1 19.25C46.1 21.3167 45.5 23.1 44.3 24.6C43.1 26.0667 41.1833 27.0667 38.55 27.6C41.0833 27.9 43.0833 28.6667 44.55 29.9C46.0167 31.1333 46.75 33.2833 46.75 36.35C46.75 42.7833 42.6333 46 34.4 46L23.5 46L23.5 11.4ZM27.65 45.5L34.4 45.5C37.3667 45.5 39.4667 44.7333 40.7 43.2C41.9667 41.6333 42.6 39.25 42.6 36.05C42.6 32.85 41.9667 30.7167 40.7 29.65C39.4333 28.5833 37.55 28.0167 35.05 27.95L27.65 27.95L27.65 45.5ZM33.75 11.5C31.8167 11.5 29.7833 11.6167 27.65 11.85L27.65 27.45L35.05 27.45C39.75 27.25 42.1 24.55 42.1 19.35C42.1 16.8167 41.4 14.8833 40 13.55C38.6 12.1833 36.5167 11.5 33.75 11.5Z" fill="#FCFAF9"/>
<path d="M33.4 11L33.4 11.5L17.65 11.5L17.65 26.5L32.25 26.5L32.25 27L17.65 27L17.65 45.5L34.5 45.5L34.5 46L13.5 46L13.5 11L33.4 11Z" fill="#FCFAF9"/>
<path d="M23 11H27V46H23V11Z" fill="#0F1C13"/>
<rect x="31" y="11" width="4" height="35" fill="#0F1C13"/>
<path d="M27 11H31V46H27V11Z" fill="white"/>
</svg>
